<svg width="24" height="24" viewBox="0 0 24 24" fill="none" xmlns="http://www.w3.org/2000/svg">
<g filter="url(#filter0_ii_1147_4464)">
<path fill-rule="evenodd" clip-rule="evenodd" d="M5.49844 2C4.61478 2 3.89844 2.71635 3.89844 3.6V20.4C3.89844 21.2837 4.61478 22 5.49844 22H18.4984C19.3821 22 20.0984 21.2837 20.0984 20.4V6.99948L15.099 2H5.49844Z" fill="#3DC5AC"/>
</g>
<path d="M10.9803 13.2598C10.8963 13.2598 10.8281 13.1946 10.8281 13.1141C10.8311 12.6147 10.8781 12.2164 10.969 11.9196C11.0629 11.6227 11.1993 11.383 11.378 11.2003C11.5568 11.0176 11.7719 10.852 12.0233 10.7037C12.2112 10.5895 12.3793 10.471 12.5278 10.3482C12.6762 10.2255 12.7944 10.0899 12.8822 9.94148C12.9701 9.79022 13.014 9.62182 13.014 9.43629C13.014 9.23927 12.964 9.06664 12.8641 8.91819C12.7641 8.76975 12.6293 8.65557 12.4596 8.57565C12.293 8.49573 12.1082 8.45572 11.9052 8.45572C11.7082 8.45572 11.5219 8.49714 11.3462 8.57988C11.1705 8.6598 11.0266 8.77972 10.9145 8.93955C10.7104 9.22539 10.4463 9.52618 10.0844 9.52618H9.83456C9.31051 9.52618 8.86418 9.10101 9.03831 8.62824C9.10791 8.43935 9.20008 8.26759 9.31479 8.11318C9.59048 7.7393 9.95556 7.46095 10.41 7.27835C10.8645 7.09282 11.3659 7 11.9143 7C12.5172 7 13.0504 7.09423 13.514 7.28258C13.9775 7.46811 14.341 7.73789 14.6046 8.09182C14.8682 8.44575 15 8.87254 15 9.37199C15 9.70596 14.9409 10.0029 14.8228 10.2626C14.7076 10.5195 14.5455 10.7479 14.3365 10.9476C14.1275 11.1447 13.8806 11.323 13.5957 11.4829C13.3564 11.617 13.1595 11.7569 13.0049 11.9025C12.8535 12.048 12.7399 12.2164 12.6641 12.4077C12.5914 12.599 12.5535 12.8345 12.5505 13.1141C12.5505 13.1946 12.4824 13.2598 12.3983 13.2598H10.9803ZM11.7279 16C11.425 16 11.1659 15.9001 10.9508 15.7003C10.7387 15.4976 10.6342 15.255 10.6372 14.9724C10.6342 14.6927 10.7387 14.4529 10.9508 14.2531C11.1659 14.0533 11.425 13.9534 11.7279 13.9534C12.0157 13.9534 12.2687 14.0533 12.4869 14.2531C12.705 14.4529 12.8156 14.6927 12.8186 14.9724C12.8156 15.1608 12.7626 15.3335 12.6596 15.4905C12.5596 15.6447 12.4278 15.7688 12.2642 15.8629C12.1006 15.9543 11.9218 16 11.7279 16Z" fill="white"/>
<path d="M19.6286 6.53125H15.5664L20.0977 11.0625V7L19.6286 6.53125Z" fill="url(#paint0_linear_1147_4464)"/>
<path d="M16.6977 7H20.0977L15.0977 2V5.4C15.0977 6.28366 15.814 7 16.6977 7Z" fill="#BEFFF3"/>
<defs>
<filter id="filter0_ii_1147_4464" x="3.89844" y="1.9" width="16.1992" height="20.2" filterUnits="userSpaceOnUse" color-interpolation-filters="sRGB">
<feFlood flood-opacity="0" result="BackgroundImageFix"/>
<feBlend mode="normal" in="SourceGraphic" in2="BackgroundImageFix" result="shape"/>
<feColorMatrix in="SourceAlpha" type="matrix" values="0 0 0 0 0 0 0 0 0 0 0 0 0 0 0 0 0 0 127 0" result="hardAlpha"/>
<feOffset dy="-0.2"/>
<feGaussianBlur stdDeviation="0.05"/>
<feComposite in2="hardAlpha" operator="arithmetic" k2="-1" k3="1"/>
<feColorMatrix type="matrix" values="0 0 0 0 0 0 0 0 0 0 0 0 0 0 0 0 0 0 0.3 0"/>
<feBlend mode="normal" in2="shape" result="effect1_innerShadow_1147_4464"/>
<feColorMatrix in="SourceAlpha" type="matrix" values="0 0 0 0 0 0 0 0 0 0 0 0 0 0 0 0 0 0 127 0" result="hardAlpha"/>
<feOffset dy="0.2"/>
<feGaussianBlur stdDeviation="0.05"/>
<feComposite in2="hardAlpha" operator="arithmetic" k2="-1" k3="1"/>
<feColorMatrix type="matrix" values="0 0 0 0 1 0 0 0 0 1 0 0 0 0 1 0 0 0 0.3 0"/>
<feBlend mode="normal" in2="effect1_innerShadow_1147_4464" result="effect2_innerShadow_1147_4464"/>
</filter>
<linearGradient id="paint0_linear_1147_4464" x1="16.582" y1="5.51563" x2="21.1133" y2="10.0469" gradientUnits="userSpaceOnUse">
<stop stop-opacity="0.2"/>
<stop offset="1" stop-opacity="0"/>
</linearGradient>
</defs>
</svg>
