<?xml version="1.0" encoding="UTF-8"?>
<svg width="26px" height="26px" viewBox="0 0 26 26" version="1.1" xmlns="http://www.w3.org/2000/svg" xmlns:xlink="http://www.w3.org/1999/xlink">
    <title>app-icons/snippets@2x</title>
    <g id="app-icons/snippets" stroke="none" stroke-width="1" fill="none" fill-rule="evenodd">
        <path d="M15.1315789,7 C15.6111947,7 16,7.44771525 16,8 C16,8.55228475 15.6111947,9 15.1315789,9 L5.86842105,9 C5.38880535,9 5,8.55228475 5,8 C5,7.44771525 5.38880535,7 5.86842105,7 L15.1315789,7 Z" id="Path" fill="#000000" fill-rule="nonzero"></path>
        <path d="M15.1315789,20.5 C15.6111947,20.5 16,20.9477153 16,21.5 C16,22.0522847 15.6111947,22.5 15.1315789,22.5 L5.86842105,22.5 C5.38880535,22.5 5,22.0522847 5,21.5 C5,20.9477153 5.38880535,20.5 5.86842105,20.5 L15.1315789,20.5 Z" id="Path-Copy-2" fill="#000000" fill-rule="nonzero"></path>
        <path d="M17.8947368,3.5 C18.5051568,3.5 19,3.94771525 19,4.5 C19,5.05228475 18.5051568,5.5 17.8947368,5.5 L6.10526316,5.5 C5.49484317,5.5 5,5.05228475 5,4.5 C5,3.94771525 5.49484317,3.5 6.10526316,3.5 L17.8947368,3.5 Z" id="Path-Copy" fill="#000000" fill-rule="nonzero"></path>
        <path d="M12.0769231,17 C12.5867244,17 13,17.4477153 13,18 C13,18.5522847 12.5867244,19 12.0769231,19 L5.92307692,19 C5.41327562,19 5,18.5522847 5,18 C5,17.4477153 5.41327562,17 5.92307692,17 L12.0769231,17 Z" id="Path" fill="#000000" fill-rule="nonzero"></path>
        <path d="M12.8439565,0.75 C15.3376378,0.75 17.831319,0.839379242 20.3206234,1.01780618 L21.5721571,1.114872 C22.3534225,1.17994652 23.0557648,1.51928103 23.5821596,2.03738022 C24.1085545,2.55547941 24.4590019,3.25234327 24.5364575,4.03227539 C24.6132201,4.80735317 24.6515136,5.58064848 24.6515136,6.35214244 C24.6515136,7.32671189 24.5904046,8.30127492 24.4680654,9.27717371 C24.3985163,9.84016866 24.1246857,10.333094 23.7264309,10.6854036 C23.32807,11.037807 22.8052291,11.2495237 22.2384372,11.2499989 L3.53612309,11.2499996 C2.95805318,11.2503643 2.42688725,11.0316479 2.02580131,10.6690459 C1.62471537,10.3064438 1.35370942,9.79995604 1.29593087,9.22449352 C1.19970668,8.26977961 1.15151357,7.31233465 1.15151357,6.35214244 C1.15151357,5.85054434 1.16466459,5.3489454 1.1909652,4.84734561 L1.24143258,4.08311554 C1.30563548,3.29103806 1.65159645,2.58025681 2.1794802,2.05088796 C2.70842604,1.52045403 3.42002744,1.17216324 4.21402362,1.10672256 C7.09067276,0.868939933 9.96731453,0.75 12.8439565,0.75 Z" id="Rectangle" stroke="#000000" stroke-width="1.5"></path>
        <path d="M12.8439565,14.75 C15.3376378,14.75 17.831319,14.8393792 20.3206234,15.0178062 L21.5721571,15.114872 C22.3534225,15.1799465 23.0557648,15.519281 23.5821596,16.0373802 C24.1085545,16.5554794 24.4590019,17.2523433 24.5364575,18.0322754 C24.6132201,18.8073532 24.6515136,19.5806485 24.6515136,20.3521424 C24.6515136,21.3267119 24.5904046,22.3012749 24.4680654,23.2771737 C24.3985163,23.8401687 24.1246857,24.333094 23.7264309,24.6854036 C23.32807,25.037807 22.8052291,25.2495237 22.2384372,25.2499989 L3.53612309,25.2499996 C2.95805318,25.2503643 2.42688725,25.0316479 2.02580131,24.6690459 C1.62471537,24.3064438 1.35370942,23.799956 1.29593087,23.2244935 C1.19970668,22.2697796 1.15151357,21.3123346 1.15151357,20.3521424 C1.15151357,19.8505443 1.16466459,19.3489454 1.1909652,18.8473456 L1.24143258,18.0831155 C1.30563548,17.2910381 1.65159645,16.5802568 2.1794802,16.050888 C2.70842604,15.520454 3.42002744,15.1721632 4.21402362,15.1067226 C7.09067276,14.8689399 9.96731453,14.75 12.8439565,14.75 Z" id="Rectangle-Copy" stroke="#000000" stroke-width="1.5" transform="translate(12.9015, 20) scale(1, -1) translate(-12.9015, -20)"></path>
    </g>
</svg>