<?xml version="1.0" encoding="UTF-8"?>
<svg width="20px" height="20px" viewBox="0 0 20 20" version="1.1" xmlns="http://www.w3.org/2000/svg" xmlns:xlink="http://www.w3.org/1999/xlink">
    <title>file-icons/team-folder@2x</title>
    <g id="file-icons/team-folder" stroke="none" stroke-width="1" fill="none" fill-rule="evenodd">
        <g id="icon-folder" transform="translate(0, 2)" fill="#F1C62D" fill-rule="nonzero">
            <path d="M8,0 L10,2 L18,2 C19.1,2 20,2.9 20,4 L20,14 C20,15.1 19.1,16 18,16 L2,16 C0.9,16 0,15.1 0,14 L0.01,2 C0.01,0.9 0.9,0 2,0 L8,0 Z M4.54389993,8.31911291 L4.4039305,8.33024556 C3.57280944,8.43328166 2.90617424,9.18048488 2.83421342,10.1314173 C2.8333568,10.1430073 2.8333568,10.1430073 2.83258158,10.1546027 C2.79950574,10.662685 2.78291427,11.0800947 2.78291427,11.4079027 C2.78291427,11.7356704 2.79949429,12.1288714 2.83254709,12.5882848 C2.90629008,13.6096507 3.66928601,14.410013 4.60422751,14.4090925 L7.78782754,14.4090925 C8.73645205,14.4089363 9.50453926,13.5855111 9.56048802,12.5480915 C9.58755594,12.0420087 9.60109609,11.5620737 9.60109609,11.1083308 C9.60109609,10.8190276 9.59559173,10.529735 9.58458311,10.2404551 L9.57999591,10.1575914 C9.50173118,9.1119562 8.69824194,8.29843216 7.73224909,8.34555578 C7.71019619,8.34663158 7.68816414,8.3481644 7.66145973,8.3509091 L7.4207245,8.37009346 C7.17265439,8.38774788 6.91616503,8.39879178 6.65126557,8.40321032 L6.38356308,8.40541987 C6.20783611,8.40541987 6.06538126,8.54787472 6.06538126,8.72360169 C6.06538126,8.89932865 6.20783611,9.0417835 6.38356308,9.0417835 C6.85319071,9.0417835 7.29987193,9.02253919 7.72364902,8.98398197 L7.76325568,8.98116358 C8.34217054,8.95292262 8.85284546,9.44759335 8.93758045,10.126379 L8.94867977,10.2646546 C8.95581432,10.4521334 8.96057067,10.6396152 8.96294883,10.8271003 L8.96473246,11.1083308 C8.96473246,11.5504062 8.95151103,12.0190436 8.92504022,12.5139629 C8.88644835,13.2295452 8.37986066,13.7726308 7.78777568,13.7727273 L4.60391375,13.7727274 C4.0204938,13.7733027 3.5180746,13.2462785 3.46726433,12.5425388 C3.43523571,12.0973608 3.41927791,11.7189158 3.41927791,11.4079027 C3.41927791,11.0956973 3.43534994,10.6913558 3.46760115,10.1959406 C3.46815306,10.1876854 3.46815306,10.1876854 3.46876276,10.1794362 C3.5251448,9.43437088 4.08368071,8.89884988 4.69819092,8.95926388 C4.87585963,8.97673092 5.03312553,8.84463439 5.04659673,8.6666181 L5.04713986,8.62658706 L5.03691623,8.56081455 C5.00875022,8.4548221 4.92687412,8.36920956 4.8201328,8.33754484 L4.75127791,8.32545456 L4.68647282,8.3203624 L4.54389993,8.31911291 Z M10.9458168,8.31817434 L10.8053899,8.32590598 C10.6305051,8.34308929 10.5026627,8.49879127 10.5198461,8.67367609 C10.5370294,8.84856091 10.6927313,8.97640324 10.8676162,8.95921993 C11.4821453,8.89883936 12.0406839,9.43437336 12.0970658,10.1794362 C12.0976755,10.1876854 12.0976755,10.1876854 12.0982274,10.1959406 C12.1304786,10.6913558 12.1465506,11.0956973 12.1465506,11.4079027 C12.1465506,11.7189158 12.1305928,12.0973608 12.0985642,12.5425388 C12.047754,13.2462784 11.5453347,13.773303 10.9619143,13.7727287 C10.7861874,13.7725557 10.6435924,13.9148703 10.6434194,14.0905971 C10.6432464,14.266324 10.7855609,14.408919 10.9612878,14.4090928 C11.896543,14.4100127 12.6595385,13.6096504 12.7332815,12.5882848 C12.7663343,12.1288714 12.7829143,11.7356704 12.7829143,11.4079027 C12.7829143,11.0800947 12.7663228,10.662685 12.733247,10.1546027 C12.7324717,10.1430073 12.7324717,10.1430073 12.7316151,10.1314173 C12.6496094,9.04774529 11.7953187,8.22864049 10.8053899,8.32590598 Z M14.9458168,8.31817434 L14.8053899,8.32590598 C14.6305051,8.34308929 14.5026627,8.49879127 14.5198461,8.67367609 C14.5370294,8.84856091 14.6927313,8.97640324 14.8676162,8.95921993 C15.4821453,8.89883936 16.0406839,9.43437336 16.0970658,10.1794362 C16.0976755,10.1876854 16.0976755,10.1876854 16.0982274,10.1959406 C16.1304786,10.6913558 16.1465506,11.0956973 16.1465506,11.4079027 C16.1465506,11.7189158 16.1305928,12.0973608 16.0985642,12.5425388 C16.047754,13.2462784 15.5453347,13.773303 14.9619143,13.7727287 C14.7861874,13.7725557 14.6435924,13.9148703 14.6434194,14.0905971 C14.6432464,14.266324 14.7855609,14.408919 14.9612878,14.4090928 C15.896543,14.4100127 16.6595385,13.6096504 16.7332815,12.5882848 C16.7663343,12.1288714 16.7829143,11.7356704 16.7829143,11.4079027 C16.7829143,11.0800947 16.7663228,10.662685 16.733247,10.1546027 C16.7324717,10.1430073 16.7324717,10.1430073 16.7316151,10.1314173 C16.6496094,9.04774529 15.7953187,8.22864049 14.8053899,8.32590598 Z M5.77094545,11.1818182 C5.57011463,11.1818182 5.40730908,11.3446237 5.40730908,11.5454545 C5.40730908,11.7462854 5.57011463,11.9090909 5.77094545,11.9090909 C5.97177627,11.9090909 6.13458181,11.7462854 6.13458181,11.5454545 C6.13458181,11.3446237 5.97177627,11.1818182 5.77094545,11.1818182 Z M5.77094545,9.72727273 C5.57011463,9.72727273 5.40730908,9.89007827 5.40730908,10.0909091 C5.40730908,10.2917399 5.57011463,10.4545455 5.77094545,10.4545455 C5.97177627,10.4545455 6.13458181,10.2917399 6.13458181,10.0909091 C6.13458181,9.89007827 5.97177627,9.72727273 5.77094545,9.72727273 Z M5.77094545,5 C4.86720677,5 4.13458181,5.73262495 4.13458181,6.63636364 C4.13458181,7.54010232 4.86720677,8.27272727 5.77094545,8.27272727 C6.67468413,8.27272727 7.40730908,7.54010232 7.40730908,6.63636364 C7.40730908,5.73262495 6.67468413,5 5.77094545,5 Z M10.4073091,5 C9.5035704,5 8.77094545,5.73262495 8.77094545,6.63636364 C8.77094545,7.54010232 9.5035704,8.27272727 10.4073091,8.27272727 C11.3110478,8.27272727 12.0436727,7.54010232 12.0436727,6.63636364 C12.0436727,5.73262495 11.3110478,5 10.4073091,5 Z M14.4073091,5 C13.5035704,5 12.7709454,5.73262495 12.7709454,6.63636364 C12.7709454,7.54010232 13.5035704,8.27272727 14.4073091,8.27272727 C15.3110478,8.27272727 16.0436727,7.54010232 16.0436727,6.63636364 C16.0436727,5.73262495 15.3110478,5 14.4073091,5 Z M5.77094545,5.72727273 C6.27302249,5.72727273 6.68003636,6.13428659 6.68003636,6.63636364 C6.68003636,7.13844068 6.27302249,7.54545455 5.77094545,7.54545455 C5.2688684,7.54545455 4.86185454,7.13844068 4.86185454,6.63636364 C4.86185454,6.13428659 5.2688684,5.72727273 5.77094545,5.72727273 Z M10.4073091,5.72727273 C10.9093861,5.72727273 11.3164,6.13428659 11.3164,6.63636364 C11.3164,7.13844068 10.9093861,7.54545455 10.4073091,7.54545455 C9.90523204,7.54545455 9.49821817,7.13844068 9.49821817,6.63636364 C9.49821817,6.13428659 9.90523204,5.72727273 10.4073091,5.72727273 Z M14.4073091,5.72727273 C14.9093861,5.72727273 15.3164,6.13428659 15.3164,6.63636364 C15.3164,7.13844068 14.9093861,7.54545455 14.4073091,7.54545455 C13.905232,7.54545455 13.4982182,7.13844068 13.4982182,6.63636364 C13.4982182,6.13428659 13.905232,5.72727273 14.4073091,5.72727273 Z" id="Combined-Shape"></path>
        </g>
    </g>
</svg>